<svg width="220" height="170" viewBox="0 0 220 170" fill="none" xmlns="http://www.w3.org/2000/svg">
<g clip-path="url(#clip0_335_67)">
<path d="M159.451 110.655L130.967 95.9525C130.537 95.7302 130.213 95.3465 130.066 94.8854C129.919 94.4244 129.96 93.9237 130.182 93.4933L131.944 90.0719C132.166 89.6419 132.549 89.3177 133.009 89.1703C133.47 89.0229 133.97 89.0644 134.4 89.2858L162.885 103.988C163.314 104.21 163.638 104.594 163.785 105.055C163.933 105.516 163.891 106.017 163.67 106.447L161.908 109.869C161.799 110.082 161.648 110.272 161.465 110.426C161.282 110.581 161.07 110.698 160.842 110.77C160.662 110.828 160.473 110.858 160.284 110.858C159.994 110.858 159.709 110.788 159.451 110.655V110.655Z" fill="white"/>
<path d="M150.767 96.9014C150.992 96.8136 151.232 96.7717 151.473 96.778C151.714 96.7843 151.952 96.8387 152.172 96.9381L161.507 102.105C162.528 102.67 163.294 103.606 163.646 104.72C163.997 105.835 163.908 107.041 163.396 108.091L163.279 108.034L163.397 108.091C162.908 109.095 162.068 109.884 161.037 110.309C160.006 110.734 158.854 110.765 157.801 110.398L147.678 106.855C147.459 106.758 147.261 106.619 147.095 106.446C146.93 106.272 146.8 106.068 146.714 105.844C146.627 105.62 146.586 105.381 146.591 105.142C146.597 104.902 146.65 104.665 146.747 104.446L149.757 97.8657C149.809 97.7466 149.874 97.6334 149.951 97.528C150.156 97.2446 150.44 97.027 150.767 96.9014V96.9014Z" fill="#2F2E41"/>
<path d="M172.245 95.323C179.945 95.323 186.188 89.0736 186.188 81.3646C186.188 73.6556 179.945 67.4062 172.245 67.4062C164.544 67.4062 158.302 73.6556 158.302 81.3646C158.302 89.0736 164.544 95.323 172.245 95.323Z" fill="white"/>
<path d="M170.534 168.174V136.091C170.535 135.607 170.727 135.143 171.069 134.8C171.411 134.458 171.874 134.266 172.358 134.265H176.203C176.686 134.266 177.15 134.458 177.492 134.8C177.834 135.143 178.026 135.607 178.027 136.091V168.174C178.026 168.658 177.834 169.122 177.492 169.464C177.15 169.807 176.686 169.999 176.203 170H172.358C171.874 169.999 171.411 169.807 171.069 169.464C170.727 169.122 170.535 168.658 170.534 168.174V168.174Z" fill="white"/>
<path d="M162.197 168.174V136.091C162.198 135.607 162.39 135.143 162.732 134.8C163.074 134.458 163.537 134.266 164.021 134.265H167.866C168.35 134.266 168.813 134.458 169.155 134.8C169.497 135.143 169.689 135.607 169.69 136.091V168.174C169.689 168.658 169.497 169.122 169.155 169.464C168.813 169.807 168.35 169.999 167.866 170H164.021C163.537 169.999 163.074 169.807 162.732 169.464C162.39 169.122 162.198 168.658 162.197 168.174V168.174Z" fill="white"/>
<path d="M172.538 86.538L172.553 86.0164C171.583 85.9894 170.729 85.9285 170.087 85.4588C169.905 85.3181 169.755 85.1398 169.648 84.936C169.541 84.7322 169.479 84.5077 169.466 84.2778C169.455 84.1373 169.476 83.9961 169.528 83.8652C169.58 83.7343 169.662 83.6171 169.767 83.5229C170.193 83.1625 170.879 83.2791 171.379 83.5086L171.81 83.7065L170.983 77.6582L170.467 77.729L171.17 82.8739C170.491 82.674 169.861 82.7601 169.43 83.1245C169.265 83.2692 169.135 83.4502 169.051 83.6535C168.967 83.8567 168.931 84.0767 168.946 84.2961C168.961 84.6051 169.043 84.9069 169.187 85.1805C169.331 85.4541 169.533 85.6929 169.779 85.8801C170.604 86.4837 171.677 86.5138 172.538 86.538Z" fill="#2F2E41"/>
<path d="M167.914 78.1729H165.107V78.6945H167.914V78.1729Z" fill="#2F2E41"/>
<path d="M176.772 78.1729H173.966V78.6945H176.772V78.1729Z" fill="#2F2E41"/>
<path d="M185.588 141.4L180.766 109.682C180.693 109.203 180.814 108.715 181.1 108.326C181.387 107.936 181.816 107.676 182.294 107.602L186.095 107.023C186.574 106.951 187.061 107.071 187.45 107.358C187.84 107.645 188.099 108.075 188.173 108.553L192.995 140.271C193.067 140.75 192.947 141.237 192.66 141.627C192.374 142.017 191.945 142.277 191.467 142.351L187.665 142.93C187.429 142.966 187.187 142.955 186.954 142.898C186.722 142.841 186.503 142.738 186.31 142.596C186.117 142.454 185.954 142.275 185.83 142.07C185.706 141.865 185.624 141.637 185.588 141.4V141.4Z" fill="white"/>
<path d="M181.861 121.042C181.658 120.911 181.483 120.741 181.346 120.542C181.209 120.343 181.114 120.118 181.065 119.882L179.757 109.284C179.614 108.124 179.921 106.954 180.614 106.015C181.308 105.075 182.336 104.438 183.486 104.236L183.508 104.364L183.486 104.236C184.584 104.043 185.715 104.259 186.664 104.845C187.614 105.431 188.316 106.345 188.637 107.414L191.721 117.696C191.772 117.931 191.776 118.173 191.733 118.409C191.69 118.645 191.6 118.87 191.47 119.071C191.34 119.273 191.172 119.447 190.975 119.583C190.777 119.719 190.555 119.815 190.321 119.866L183.233 121.293C183.106 121.321 182.977 121.335 182.847 121.335C182.497 121.335 182.154 121.233 181.861 121.042V121.042Z" fill="#2F2E41"/>
<path d="M182.235 143.968H144.974C144.596 143.968 144.225 143.871 143.895 143.686C143.565 143.502 143.287 143.236 143.089 142.914C142.891 142.592 142.778 142.225 142.762 141.847C142.745 141.469 142.826 141.093 142.996 140.755L161.011 104.89C162.262 102.398 164.317 100.402 166.843 99.2241C169.368 98.0462 172.217 97.7558 174.928 98.3997C177.639 99.0437 180.054 100.584 181.781 102.772C183.509 104.961 184.449 107.668 184.449 110.458V141.751C184.448 142.339 184.215 142.902 183.8 143.318C183.385 143.733 182.822 143.967 182.235 143.968V143.968Z" fill="#2F2E41"/>
<path d="M172.74 69.8486C169.885 70.4865 167.478 72.3489 164.608 72.928C163.3 73.1918 161.86 73.1811 160.659 72.5366C159.77 72.053 159.089 71.2583 158.748 70.3042C158.411 69.3285 158.324 68.2835 158.495 67.2653C158.667 66.2471 159.091 65.2884 159.73 64.4774C161.341 62.5032 163.909 61.5934 166.373 61.337C171.305 60.8239 176.371 62.4509 180.385 65.285C184.53 68.2112 187.709 72.6052 188.776 77.606C189.346 80.2792 189.29 83.1228 188.316 85.697C187.38 88.1602 185.537 90.171 183.166 91.3162C182.6 91.5895 182.01 91.8095 181.403 91.9732C181.307 92.0035 181.226 92.0703 181.177 92.1594C181.128 92.2486 181.116 92.353 181.143 92.4509C181.17 92.5487 181.234 92.6323 181.321 92.6839C181.409 92.7355 181.513 92.7512 181.611 92.7277C184.277 91.9988 186.577 90.3033 188.064 87.9708C189.591 85.5257 190.103 82.5323 189.868 79.6876C189.413 74.1847 186.39 69.1269 182.164 65.6643C178.105 62.3379 172.853 60.3139 167.573 60.4747C164.925 60.5554 162.176 61.2283 160.117 62.9752C159.23 63.7265 158.543 64.6867 158.118 65.7696C157.693 66.8525 157.544 68.0241 157.684 69.1791C157.802 70.2597 158.23 71.2828 158.917 72.1247C159.757 73.0747 160.921 73.6765 162.181 73.8122C165.303 74.2191 168.011 72.4473 170.769 71.3085C171.474 71.0114 172.203 70.7754 172.947 70.603C173.438 70.4934 173.23 69.7388 172.74 69.8486V69.8486Z" fill="#2F2E41"/>
<path d="M180.582 64.319C179.461 60.118 182.386 55.7457 186.361 54.4338C188.642 53.7228 191.089 53.7501 193.353 54.5119C195.561 55.2598 197.544 56.5555 199.116 58.2782C202.6 61.9891 204.144 66.9976 204.866 71.9357C205.611 77.0344 205.191 82.6187 207.797 87.2519C208.877 89.1728 210.481 90.8548 212.553 91.6819C214.486 92.4536 216.802 92.4572 218.654 91.4543C219.1 91.21 219.512 90.9087 219.88 90.5579C220.247 90.2116 219.693 89.659 219.327 90.0046C217.777 91.4696 215.465 91.7459 213.472 91.171C211.298 90.544 209.624 88.8712 208.521 86.945C207.246 84.7175 206.715 82.1714 206.426 79.6452C206.11 76.8875 205.988 74.1149 205.566 71.3684C204.804 66.4148 203.159 61.4423 199.668 57.7249C198.072 55.9888 196.082 54.663 193.865 53.8595C191.584 53.0416 189.111 52.9167 186.759 53.5003C184.621 54.0547 182.736 55.3236 181.416 57.0969C180.134 58.7799 179.482 60.8598 179.574 62.9745C179.607 63.4991 179.692 64.0191 179.828 64.527C179.858 64.6238 179.925 64.7051 180.014 64.7537C180.103 64.8023 180.207 64.8143 180.305 64.7874C180.403 64.7604 180.486 64.6965 180.538 64.6091C180.59 64.5217 180.605 64.4177 180.582 64.319L180.582 64.319Z" fill="#2F2E41"/>
<path d="M27.1619 99.8905H4.42887C3.25466 99.8892 2.12893 99.4216 1.29864 98.5904C0.468357 97.7592 0.00132185 96.6322 0 95.4567V4.43378C0.00132185 3.25828 0.468357 2.1313 1.29864 1.30009C2.12893 0.468879 3.25466 0.00132332 4.42887 0H66.0894L77.3749 10.0877V28.4284H76.8539V10.3213L65.8905 0.521621H4.42887C3.39281 0.522795 2.39952 0.935345 1.66691 1.66876C0.934306 2.40218 0.522215 3.39658 0.521043 4.43378V95.4567C0.522215 96.4939 0.934306 97.4883 1.66691 98.2218C2.39952 98.9552 3.39281 99.3677 4.42887 99.3689H27.1619V99.8905Z" fill="#CCCCCC"/>
<path d="M77.1143 10.4324H70.0802C68.906 10.4311 67.7803 9.96355 66.95 9.13235C66.1197 8.30114 65.6527 7.17415 65.6514 5.99865V0.260811C65.6514 0.191639 65.6788 0.125301 65.7277 0.0763895C65.7765 0.027478 65.8428 0 65.9119 0C65.981 0 66.0472 0.027478 66.0961 0.0763895C66.145 0.125301 66.1724 0.191639 66.1724 0.260811V5.99865C66.1736 7.03586 66.5857 8.03025 67.3183 8.76367C68.0509 9.49708 69.0442 9.90964 70.0802 9.91081H77.1143C77.1834 9.91081 77.2497 9.93829 77.2985 9.9872C77.3474 10.0361 77.3748 10.1024 77.3748 10.1716C77.3748 10.2408 77.3474 10.3071 77.2985 10.356C77.2497 10.405 77.1834 10.4324 77.1143 10.4324Z" fill="#CCCCCC"/>
<path d="M68.3972 23.6035H8.99824C8.44548 23.6035 7.91536 23.8233 7.5245 24.2146C7.13364 24.6059 6.91406 25.1366 6.91406 25.69C6.91406 26.2434 7.13364 26.7741 7.5245 27.1654C7.91536 27.5567 8.44548 27.7765 8.99824 27.7765H68.3972C68.9499 27.7765 69.48 27.5567 69.8709 27.1654C70.2618 26.7741 70.4813 26.2434 70.4813 25.69C70.4813 25.1366 70.2618 24.6059 69.8709 24.2146C69.48 23.8233 68.9499 23.6035 68.3972 23.6035Z" fill="#E6E6E6"/>
<path d="M38.4372 14.7358H8.99824C8.44548 14.7358 7.91536 14.9557 7.5245 15.347C7.13364 15.7382 6.91406 16.269 6.91406 16.8223C6.91406 17.3757 7.13364 17.9064 7.5245 18.2977C7.91536 18.689 8.44548 18.9088 8.99824 18.9088H38.4372C38.9899 18.9088 39.5201 18.689 39.9109 18.2977C40.3018 17.9064 40.5214 17.3757 40.5214 16.8223C40.5214 16.269 40.3018 15.7382 39.9109 15.347C39.5201 14.9557 38.9899 14.7358 38.4372 14.7358Z" fill="#E6E6E6"/>
<path d="M8.99824 41.0776C8.44548 41.0776 7.91536 41.2975 7.5245 41.6888C7.13364 42.0801 6.91406 42.6108 6.91406 43.1641C6.91406 43.7175 7.13364 44.2482 7.5245 44.6395C7.91536 45.0308 8.44548 45.2506 8.99824 45.2506H27.6151V41.0776H8.99824Z" fill="#E6E6E6"/>
<path d="M8.99824 32.21C8.72454 32.21 8.45352 32.2639 8.20066 32.3688C7.94779 32.4736 7.71803 32.6273 7.5245 32.8211C7.33097 33.0148 7.17745 33.2448 7.07271 33.498C6.96797 33.7511 6.91406 34.0224 6.91406 34.2964C6.91406 34.5704 6.96797 34.8418 7.07271 35.0949C7.17745 35.348 7.33097 35.5781 7.5245 35.7718C7.71803 35.9656 7.94779 36.1193 8.20066 36.2241C8.45352 36.329 8.72454 36.3829 8.99824 36.3829H27.6151V32.21H8.99824Z" fill="#E6E6E6"/>
<path d="M27.7451 85.2849H11.0613C9.92164 85.2836 8.82902 84.8298 8.02315 84.023C7.21728 83.2163 6.76398 82.1224 6.7627 80.9815V59.0734C6.76398 57.9325 7.21729 56.8386 8.02315 56.0319C8.82902 55.2251 9.92164 54.7713 11.0613 54.77H27.7451V85.2849Z" fill="#E6E6E6"/>
<path d="M54.6473 127.928H31.9142C30.74 127.926 29.6143 127.459 28.784 126.628C27.9537 125.796 27.4867 124.669 27.4854 123.494V32.4709C27.4867 31.2954 27.9537 30.1684 28.784 29.3372C29.6143 28.506 30.74 28.0384 31.9142 28.0371H93.5747L104.86 38.1248V55.4222H104.339V38.3584L93.3759 28.5587H31.9142C30.8782 28.5599 29.8849 28.9725 29.1523 29.7059C28.4197 30.4393 28.0076 31.4337 28.0064 32.4709V123.494C28.0076 124.531 28.4197 125.525 29.1523 126.259C29.8849 126.992 30.8782 127.405 31.9142 127.406H54.6473V127.928Z" fill="#CCCCCC"/>
<path d="M104.6 38.4695H97.5656C96.3914 38.4682 95.2657 38.0007 94.4354 37.1695C93.6051 36.3382 93.138 35.2113 93.1367 34.0358V28.2979C93.1367 28.2287 93.1642 28.1624 93.213 28.1135C93.2619 28.0646 93.3281 28.0371 93.3972 28.0371C93.4663 28.0371 93.5326 28.0646 93.5815 28.1135C93.6303 28.1624 93.6578 28.2287 93.6578 28.2979V34.0358C93.6589 35.073 94.071 36.0674 94.8036 36.8008C95.5362 37.5342 96.5295 37.9467 97.5656 37.9479H104.6C104.669 37.9479 104.735 37.9754 104.784 38.0243C104.833 38.0732 104.86 38.1396 104.86 38.2087C104.86 38.2779 104.833 38.3442 104.784 38.3931C104.735 38.4421 104.669 38.4695 104.6 38.4695Z" fill="#CCCCCC"/>
<path d="M95.8825 51.6406H36.4836C35.9308 51.6406 35.4007 51.8605 35.0099 52.2517C34.619 52.643 34.3994 53.1737 34.3994 53.7271C34.3994 54.2805 34.619 54.8112 35.0099 55.2025C35.4007 55.5938 35.9308 55.8136 36.4836 55.8136H95.8825C96.4353 55.8136 96.9654 55.5938 97.3562 55.2025C97.7471 54.8112 97.9667 54.2805 97.9667 53.7271C97.9667 53.1737 97.7471 52.643 97.3562 52.2517C96.9654 51.8605 96.4353 51.6406 95.8825 51.6406Z" fill="#E6E6E6"/>
<path d="M65.9225 42.7729H36.4836C35.9308 42.7729 35.4007 42.9928 35.0099 43.3841C34.619 43.7754 34.3994 44.3061 34.3994 44.8594C34.3994 45.4128 34.619 45.9435 35.0099 46.3348C35.4007 46.7261 35.9308 46.9459 36.4836 46.9459H65.9225C66.4753 46.9459 67.0054 46.7261 67.3963 46.3348C67.7871 45.9435 68.0067 45.4128 68.0067 44.8594C68.0067 44.3061 67.7871 43.7754 67.3963 43.3841C67.0054 42.9928 66.4753 42.7729 65.9225 42.7729Z" fill="#E6E6E6"/>
<path d="M95.8825 51.6406H36.4836C35.9308 51.6406 35.4007 51.8605 35.0099 52.2517C34.619 52.643 34.3994 53.1737 34.3994 53.7271C34.3994 54.2805 34.619 54.8112 35.0099 55.2025C35.4007 55.5938 35.9308 55.8136 36.4836 55.8136H95.8825C96.4353 55.8136 96.9654 55.5938 97.3562 55.2025C97.7471 54.8112 97.9667 54.2805 97.9667 53.7271C97.9667 53.1737 97.7471 52.643 97.3562 52.2517C96.9654 51.8605 96.4353 51.6406 95.8825 51.6406Z" fill="#E6E6E6"/>
<path d="M65.9225 42.7729H36.4836C35.9308 42.7729 35.4007 42.9928 35.0099 43.3841C34.619 43.7754 34.3994 44.3061 34.3994 44.8594C34.3994 45.4128 34.619 45.9435 35.0099 46.3348C35.4007 46.7261 35.9308 46.9459 36.4836 46.9459H65.9225C66.4753 46.9459 67.0054 46.7261 67.3963 46.3348C67.7871 45.9435 68.0067 45.4128 68.0067 44.8594C68.0067 44.3061 67.7871 43.7754 67.3963 43.3841C67.0054 42.9928 66.4753 42.7729 65.9225 42.7729Z" fill="#E6E6E6"/>
<path d="M36.4836 69.1147C35.9308 69.1147 35.4007 69.3346 35.0099 69.7259C34.619 70.1172 34.3994 70.6479 34.3994 71.2012C34.3994 71.7546 34.619 72.2853 35.0099 72.6766C35.4007 73.0679 35.9308 73.2877 36.4836 73.2877H55.1005V69.1147H36.4836Z" fill="#E6E6E6"/>
<path d="M36.4836 60.2471C35.9308 60.2471 35.4007 60.4669 35.0099 60.8582C34.619 61.2495 34.3994 61.7802 34.3994 62.3336C34.3994 62.8869 34.619 63.4176 35.0099 63.8089C35.4007 64.2002 35.9308 64.42 36.4836 64.42H55.1005V60.2471H36.4836Z" fill="#E6E6E6"/>
<path d="M36.4836 69.1147C35.9308 69.1147 35.4007 69.3346 35.0099 69.7259C34.619 70.1172 34.3994 70.6479 34.3994 71.2012C34.3994 71.7546 34.619 72.2853 35.0099 72.6766C35.4007 73.0679 35.9308 73.2877 36.4836 73.2877H55.1005V69.1147H36.4836Z" fill="#E6E6E6"/>
<path d="M36.4836 60.2471C35.9308 60.2471 35.4007 60.4669 35.0099 60.8582C34.619 61.2495 34.3994 61.7802 34.3994 62.3336C34.3994 62.8869 34.619 63.4176 35.0099 63.8089C35.4007 64.2002 35.9308 64.42 36.4836 64.42H55.1005V60.2471H36.4836Z" fill="#E6E6E6"/>
<path d="M55.2305 113.322H38.5467C37.407 113.321 36.3144 112.867 35.5085 112.061C34.7026 111.254 34.2493 110.16 34.248 109.019V87.111C34.2493 85.9701 34.7026 84.8762 35.5085 84.0695C36.3144 83.2627 37.407 82.8089 38.5467 82.8076H55.2305V113.322Z" fill="#E6E6E6"/>
<path d="M56.6998 56.3351C56.0523 56.7308 55.5172 57.2864 55.1459 57.9486C54.7745 58.6108 54.5794 59.3575 54.5791 60.1169V60.7689H55.1002V60.1169C55.1012 59.2544 55.3864 58.4163 55.9116 57.7326C56.4368 57.0489 57.1726 56.5577 58.0049 56.3351H56.6998ZM120.668 55.6831H59.008C57.8338 55.6845 56.7081 56.1521 55.8778 56.9833C55.0475 57.8144 54.5805 58.9414 54.5791 60.1169V151.14C54.5808 152.315 55.0479 153.442 55.8781 154.273C56.7083 155.104 57.8339 155.572 59.008 155.574H127.525C128.699 155.572 129.825 155.104 130.655 154.273C131.485 153.442 131.952 152.315 131.954 151.14V65.7713L120.668 55.6831ZM131.433 151.14C131.432 152.177 131.02 153.171 130.287 153.905C129.554 154.638 128.561 155.051 127.525 155.052H59.008C57.9719 155.051 56.9787 154.638 56.2461 153.905C55.5135 153.171 55.1014 152.177 55.1001 151.14V60.1169C55.1012 59.2544 55.3864 58.4163 55.9116 57.7326C56.4368 57.0489 57.1726 56.5577 58.0049 56.3351C58.3321 56.2479 58.6694 56.204 59.008 56.2047H120.47L131.433 66.0034V151.14ZM56.6998 56.3351C56.0523 56.7308 55.5172 57.2864 55.1458 57.9486C54.7745 58.6108 54.5793 59.3575 54.5791 60.1169V60.7689H55.1001V60.1169C55.1012 59.2544 55.3864 58.4163 55.9116 57.7326C56.4368 57.0489 57.1726 56.5577 58.0049 56.3351H56.6998Z" fill="#3F3D56"/>
<path d="M131.693 66.1155H124.659C123.485 66.1142 122.359 65.6467 121.529 64.8155C120.699 63.9842 120.232 62.8573 120.23 61.6818V55.9439C120.23 55.8747 120.258 55.8084 120.307 55.7595C120.356 55.7106 120.422 55.6831 120.491 55.6831C120.56 55.6831 120.626 55.7106 120.675 55.7595C120.724 55.8084 120.752 55.8747 120.752 55.9439V61.6818C120.753 62.719 121.165 63.7134 121.897 64.4468C122.63 65.1802 123.623 65.5927 124.659 65.5939H131.693C131.763 65.5939 131.829 65.6214 131.878 65.6703C131.927 65.7192 131.954 65.7856 131.954 65.8547C131.954 65.9239 131.927 65.9902 131.878 66.0391C131.829 66.0881 131.763 66.1155 131.693 66.1155Z" fill="#3F3D56"/>
<path d="M122.977 83.4596H63.5783C63.0256 83.4596 62.4954 83.2398 62.1046 82.8485C61.7137 82.4572 61.4941 81.9265 61.4941 81.3731C61.4941 80.8197 61.7137 80.289 62.1046 79.8977C62.4954 79.5065 63.0256 79.2866 63.5783 79.2866H122.977C123.53 79.2866 124.06 79.5065 124.451 79.8977C124.842 80.289 125.061 80.8197 125.061 81.3731C125.061 81.9265 124.842 82.4572 124.451 82.8485C124.06 83.2398 123.53 83.4596 122.977 83.4596Z" fill="#CCCCCC"/>
<path d="M93.0172 74.5919H63.5783C63.0256 74.5919 62.4954 74.3721 62.1046 73.9808C61.7137 73.5895 61.4941 73.0588 61.4941 72.5054C61.4941 71.9521 61.7137 71.4214 62.1046 71.0301C62.4954 70.6388 63.0256 70.4189 63.5783 70.4189H93.0172C93.57 70.4189 94.1001 70.6388 94.491 71.0301C94.8818 71.4214 95.1014 71.9521 95.1014 72.5054C95.1014 73.0588 94.8818 73.5895 94.491 73.9808C94.1001 74.3721 93.57 74.5919 93.0172 74.5919Z" fill="#CCCCCC"/>
<path d="M122.977 100.934H63.5783C63.0256 100.934 62.4954 100.714 62.1046 100.323C61.7137 99.9313 61.4941 99.4006 61.4941 98.8472C61.4941 98.2939 61.7137 97.7632 62.1046 97.3719C62.4954 96.9806 63.0256 96.7607 63.5783 96.7607H122.977C123.53 96.7607 124.06 96.9806 124.451 97.3719C124.842 97.7632 125.061 98.2939 125.061 98.8472C125.061 99.4006 124.842 99.9313 124.451 100.323C124.06 100.714 123.53 100.934 122.977 100.934Z" fill="#CCCCCC"/>
<path d="M93.0172 92.066H63.5783C63.0256 92.066 62.4954 91.8462 62.1046 91.4549C61.7137 91.0636 61.4941 90.5329 61.4941 89.9796C61.4941 89.4262 61.7137 88.8955 62.1046 88.5042C62.4954 88.1129 63.0256 87.8931 63.5783 87.8931H93.0172C93.57 87.8931 94.1001 88.1129 94.491 88.5042C94.8818 88.8955 95.1014 89.4262 95.1014 89.9796C95.1014 90.5329 94.8818 91.0636 94.491 91.4549C94.1001 91.8462 93.57 92.066 93.0172 92.066Z" fill="#CCCCCC"/>
<path d="M120.871 140.968H65.6404C64.5007 140.967 63.4081 140.513 62.6023 139.706C61.7964 138.899 61.3431 137.806 61.3418 136.665V114.757C61.3431 113.616 61.7964 112.522 62.6023 111.715C63.4081 110.908 64.5007 110.454 65.6404 110.453H120.871C122.011 110.454 123.103 110.908 123.909 111.715C124.715 112.522 125.168 113.616 125.17 114.757V136.665C125.168 137.806 124.715 138.899 123.909 139.706C123.103 140.513 122.011 140.967 120.871 140.968Z" fill="white"/>
</g>
<defs>
<clipPath id="clip0_335_67">
<rect width="220" height="170" fill="white"/>
</clipPath>
</defs>
</svg>
