<svg width="256" height="111" viewBox="0 0 256 111" fill="none" xmlns="http://www.w3.org/2000/svg">
<g clip-path="url(#clip0_341_330)">
<path d="M230.92 45.791H80.723C80.0852 45.791 79.4736 46.0442 79.0227 46.495C78.5717 46.9457 78.3184 47.557 78.3184 48.1945C78.3184 48.8319 78.5717 49.4432 79.0227 49.894C79.4736 50.3447 80.0852 50.5979 80.723 50.5979H84.9773V108.096C84.9773 108.733 85.2307 109.345 85.6816 109.795C86.1326 110.246 86.7442 110.499 87.382 110.499C88.0197 110.499 88.6313 110.246 89.0823 109.795C89.5332 109.345 89.7866 108.733 89.7866 108.096L89.8231 50.5979H210.371L221.486 108.096C221.486 108.733 221.739 109.345 222.19 109.795C222.641 110.246 223.253 110.499 223.891 110.499C224.528 110.499 225.14 110.246 225.591 109.795C226.042 109.345 226.295 108.733 226.295 108.096L226.995 50.5979H230.92C231.557 50.5979 232.169 50.3447 232.62 49.894C233.071 49.4432 233.324 48.8319 233.324 48.1945C233.324 47.557 233.071 46.9457 232.62 46.495C232.169 46.0442 231.557 45.791 230.92 45.791V45.791Z" fill="#CCCCCC"/>
<path d="M106.757 35.0812V45.2592H81.2453C80.5767 45.2824 79.91 45.1738 79.2834 44.9396C78.6568 44.7053 78.0825 44.35 77.5932 43.8938C77.104 43.4377 76.7094 42.8898 76.4321 42.2812C76.1547 41.6727 76 41.0155 75.9767 40.3472C75.9535 39.6789 76.0621 39.0126 76.2965 38.3863C76.5309 37.76 76.8864 37.1859 77.3427 36.6969C77.7991 36.2079 78.3473 35.8136 78.9561 35.5363C79.5649 35.2591 80.2224 35.1045 80.891 35.0812C81.0091 35.0771 81.1272 35.0771 81.2453 35.0812L106.757 35.0812Z" fill="#F2F2F2"/>
<path d="M107.385 45.1812C107.385 45.2851 107.343 45.3846 107.27 45.458C107.196 45.5314 107.097 45.5727 106.993 45.5727H80.7916C79.3692 45.5717 78.0054 45.0062 76.9999 44.0006C75.9945 42.9949 75.4297 41.6314 75.4297 40.2097C75.4297 38.788 75.9945 37.4244 76.9999 36.4188C78.0054 35.4131 79.3692 34.8477 80.7916 34.8467H106.993C107.045 34.8465 107.096 34.8566 107.143 34.8762C107.191 34.8958 107.234 34.9246 107.271 34.961C107.307 34.9973 107.336 35.0405 107.356 35.0881C107.376 35.1357 107.386 35.1866 107.386 35.2381C107.386 35.2896 107.376 35.3406 107.356 35.3882C107.336 35.4357 107.307 35.4789 107.271 35.5153C107.234 35.5517 107.191 35.5805 107.143 35.6001C107.096 35.6197 107.045 35.6297 106.993 35.6296H80.7916C79.5775 35.6314 78.4137 36.1148 77.5559 36.9735C76.698 37.8323 76.2162 38.9962 76.2162 40.2097C76.2162 41.4232 76.698 42.5871 77.5559 43.4459C78.4137 44.3046 79.5775 44.7879 80.7916 44.7898H106.993C107.097 44.7898 107.196 44.8311 107.27 44.9045C107.343 44.9779 107.385 45.0774 107.385 45.1812V45.1812Z" fill="#1B2E4C"/>
<path d="M106.758 37.43H79.3424C79.3217 37.4301 79.3018 37.422 79.287 37.4075C79.2723 37.3929 79.2639 37.3732 79.2637 37.3524C79.2635 37.3317 79.2715 37.3118 79.286 37.297C79.3005 37.2822 79.3203 37.2737 79.341 37.2734H106.758C106.779 37.2736 106.798 37.282 106.813 37.2966C106.827 37.3113 106.836 37.3311 106.836 37.3517C106.836 37.3724 106.827 37.3922 106.813 37.4068C106.798 37.4215 106.779 37.4298 106.758 37.43Z" fill="#CCCCCC"/>
<path d="M106.758 39.3089H79.3424C79.3217 39.309 79.3018 39.3009 79.287 39.2864C79.2723 39.2719 79.2639 39.2521 79.2637 39.2314C79.2635 39.2106 79.2715 39.1907 79.286 39.1759C79.3005 39.1611 79.3203 39.1526 79.341 39.1523H106.758C106.779 39.1526 106.798 39.1609 106.813 39.1755C106.827 39.1902 106.836 39.21 106.836 39.2306C106.836 39.2513 106.827 39.2711 106.813 39.2857C106.798 39.3004 106.779 39.3087 106.758 39.3089Z" fill="#CCCCCC"/>
<path d="M106.758 41.1883H79.3424C79.3217 41.1884 79.3018 41.1803 79.287 41.1658C79.2723 41.1513 79.2639 41.1315 79.2637 41.1107C79.2635 41.09 79.2715 41.0701 79.286 41.0553C79.3005 41.0405 79.3203 41.032 79.341 41.0317H106.758C106.779 41.0319 106.798 41.0403 106.813 41.0549C106.827 41.0696 106.836 41.0894 106.836 41.11C106.836 41.1307 106.827 41.1505 106.813 41.1651C106.798 41.1798 106.779 41.1881 106.758 41.1883Z" fill="#CCCCCC"/>
<path d="M106.758 43.0672H79.3424C79.3217 43.0673 79.3018 43.0592 79.287 43.0447C79.2723 43.0302 79.2639 43.0104 79.2637 42.9897C79.2635 42.9689 79.2715 42.949 79.286 42.9342C79.3005 42.9194 79.3203 42.9109 79.341 42.9106H106.758C106.779 42.9109 106.798 42.9192 106.813 42.9338C106.827 42.9485 106.836 42.9683 106.836 42.9889C106.836 43.0096 106.827 43.0294 106.813 43.044C106.798 43.0587 106.779 43.067 106.758 43.0672Z" fill="#CCCCCC"/>
<path d="M101.949 24.3581V34.536H76.4367C75.0864 34.583 73.7727 34.0919 72.7846 33.1707C71.7966 32.2495 71.2151 30.9738 71.1681 29.6241C71.1211 28.2744 71.6125 26.9614 72.5341 25.9738C73.4557 24.9862 74.7321 24.405 76.0825 24.3581C76.2005 24.354 76.3186 24.354 76.4367 24.3581H101.949Z" fill="#F2F2F2"/>
<path d="M102.575 34.4581C102.575 34.5619 102.534 34.6614 102.46 34.7348C102.387 34.8082 102.287 34.8495 102.183 34.8495H75.9818C74.5588 34.8495 73.194 34.2845 72.1878 33.2788C71.1815 32.273 70.6162 30.9089 70.6162 29.4865C70.6162 28.0642 71.1815 26.7001 72.1878 25.6943C73.194 24.6886 74.5588 24.1235 75.9818 24.1235H102.183C102.235 24.1235 102.286 24.1337 102.333 24.1533C102.381 24.173 102.424 24.2018 102.46 24.2382C102.497 24.2745 102.525 24.3177 102.545 24.3652C102.565 24.4127 102.575 24.4636 102.575 24.515C102.575 24.5664 102.565 24.6173 102.545 24.6648C102.525 24.7123 102.497 24.7554 102.46 24.7918C102.424 24.8281 102.381 24.857 102.333 24.8767C102.286 24.8963 102.235 24.9065 102.183 24.9065H75.9818C74.7665 24.9065 73.601 25.389 72.7416 26.2479C71.8823 27.1069 71.3995 28.2718 71.3995 29.4865C71.3995 30.7013 71.8823 31.8662 72.7416 32.7252C73.601 33.5841 74.7665 34.0666 75.9818 34.0666H102.183C102.287 34.0667 102.387 34.1079 102.46 34.1813C102.534 34.2547 102.575 34.3543 102.575 34.4581Z" fill="#3F3D56"/>
<path d="M101.948 26.7069H74.5329C74.5121 26.707 74.4922 26.6989 74.4775 26.6843C74.4627 26.6698 74.4543 26.65 74.4541 26.6293C74.4539 26.6086 74.4619 26.5886 74.4764 26.5738C74.4909 26.559 74.5107 26.5506 74.5314 26.5503H101.948C101.969 26.5505 101.989 26.5588 102.003 26.5735C102.018 26.5882 102.026 26.6079 102.026 26.6286C102.026 26.6492 102.018 26.669 102.003 26.6837C101.989 26.6983 101.969 26.7067 101.948 26.7069V26.7069Z" fill="#CCCCCC"/>
<path d="M101.948 28.5858H74.5329C74.5121 28.5859 74.4922 28.5778 74.4775 28.5633C74.4627 28.5487 74.4543 28.5289 74.4541 28.5082C74.4539 28.4875 74.4619 28.4676 74.4764 28.4528C74.4909 28.4379 74.5107 28.4295 74.5314 28.4292H101.948C101.969 28.4294 101.989 28.4378 102.003 28.4524C102.018 28.4671 102.026 28.4869 102.026 28.5075C102.026 28.5281 102.018 28.5479 102.003 28.5626C101.989 28.5772 101.969 28.5856 101.948 28.5858Z" fill="#CCCCCC"/>
<path d="M101.948 30.4652H74.5329C74.5121 30.4653 74.4922 30.4572 74.4775 30.4426C74.4627 30.4281 74.4543 30.4083 74.4541 30.3876C74.4539 30.3669 74.4619 30.3469 74.4764 30.3321C74.4909 30.3173 74.5107 30.3089 74.5314 30.3086H101.948C101.969 30.3088 101.989 30.3171 102.003 30.3318C102.018 30.3465 102.026 30.3663 102.026 30.3869C102.026 30.4075 102.018 30.4273 102.003 30.442C101.989 30.4566 101.969 30.465 101.948 30.4652Z" fill="#CCCCCC"/>
<path d="M101.948 32.3441H74.5329C74.5121 32.3442 74.4922 32.3361 74.4775 32.3216C74.4627 32.307 74.4543 32.2872 74.4541 32.2665C74.4539 32.2458 74.4619 32.2259 74.4764 32.211C74.4909 32.1962 74.5107 32.1878 74.5314 32.1875H101.948C101.969 32.1877 101.989 32.196 102.003 32.2107C102.018 32.2254 102.026 32.2452 102.026 32.2658C102.026 32.2864 102.018 32.3062 102.003 32.3209C101.989 32.3355 101.969 32.3439 101.948 32.3441V32.3441Z" fill="#CCCCCC"/>
<path d="M131.626 81.8065V72.9322C131.626 72.5399 131.47 72.1637 131.193 71.8863C130.915 71.609 130.539 71.4531 130.146 71.4531H96.4817C96.0893 71.4531 95.7129 71.609 95.4354 71.8863C95.1579 72.1637 95.002 72.5399 95.002 72.9322V81.8065H131.626Z" fill="#CCCCCC"/>
<path d="M131.626 85.1343H95.002V96.5969H131.626V85.1343Z" fill="#CCCCCC"/>
<path d="M95.002 99.9248V108.799C95.002 109.191 95.1579 109.568 95.4354 109.845C95.7129 110.122 96.0893 110.278 96.4817 110.278H130.146C130.539 110.278 130.915 110.122 131.193 109.845C131.47 109.568 131.626 109.191 131.626 108.799V99.9248H95.002Z" fill="#CCCCCC"/>
<path d="M113.129 78.1087C113.742 78.1087 114.239 77.6121 114.239 76.9994C114.239 76.3868 113.742 75.8901 113.129 75.8901C112.516 75.8901 112.02 76.3868 112.02 76.9994C112.02 77.6121 112.516 78.1087 113.129 78.1087Z" fill="white"/>
<path d="M113.129 92.8992C113.742 92.8992 114.239 92.4026 114.239 91.79C114.239 91.1773 113.742 90.6807 113.129 90.6807C112.516 90.6807 112.02 91.1773 112.02 91.79C112.02 92.4026 112.516 92.8992 113.129 92.8992Z" fill="white"/>
<path d="M113.189 107.376C113.802 107.376 114.299 106.88 114.299 106.267C114.299 105.654 113.802 105.158 113.189 105.158C112.576 105.158 112.079 105.654 112.079 106.267C112.079 106.88 112.576 107.376 113.189 107.376Z" fill="white"/>
<path d="M127.475 61.3346V71.5126H101.963C100.613 71.5586 99.3 71.0671 98.3127 70.146C97.3254 69.2249 96.7444 67.9497 96.6974 66.6007C96.6504 65.2516 97.1413 63.9391 98.0621 62.9516C98.9829 61.9642 100.258 61.3826 101.608 61.3346C101.726 61.3305 101.844 61.3305 101.963 61.3346H127.475Z" fill="#F2F2F2"/>
<path d="M128.101 71.4342C128.101 71.538 128.059 71.6375 127.986 71.7109C127.912 71.7843 127.813 71.8256 127.709 71.8256H101.508C100.085 71.826 98.7202 71.2615 97.7138 70.2564C96.7073 69.2513 96.1415 67.8879 96.1406 66.4658C96.1398 65.0438 96.704 63.6797 97.7092 62.6733C98.7145 61.667 100.078 61.101 101.501 61.0996H127.709C127.761 61.0995 127.812 61.1095 127.859 61.1291C127.907 61.1487 127.95 61.1775 127.987 61.2139C128.023 61.2503 128.052 61.2935 128.072 61.341C128.092 61.3886 128.102 61.4396 128.102 61.4911C128.102 61.5426 128.092 61.5935 128.072 61.6411C128.052 61.6887 128.023 61.7319 127.987 61.7682C127.95 61.8046 127.907 61.8334 127.859 61.853C127.812 61.8726 127.761 61.8827 127.709 61.8825H101.508C100.293 61.8841 99.1293 62.3674 98.2713 63.2261C97.4132 64.0849 96.9313 65.2489 96.9313 66.4626C96.9313 67.6763 97.4132 68.8404 98.2713 69.6991C99.1293 70.5579 100.293 71.0411 101.508 71.0427H127.709C127.813 71.0427 127.912 71.084 127.986 71.1574C128.059 71.2308 128.101 71.3304 128.101 71.4342V71.4342Z" fill="#3F3D56"/>
<path d="M127.475 63.6834H100.059C100.038 63.6836 100.019 63.6754 100.004 63.6609C99.9891 63.6464 99.9807 63.6266 99.9805 63.6059C99.9803 63.5852 99.9883 63.5652 100.003 63.5504C100.017 63.5356 100.037 63.5271 100.058 63.5269H127.475C127.495 63.5271 127.515 63.5354 127.53 63.5501C127.544 63.5647 127.552 63.5845 127.552 63.6051C127.552 63.6258 127.544 63.6456 127.53 63.6602C127.515 63.6749 127.495 63.6832 127.475 63.6834H127.475Z" fill="#CCCCCC"/>
<path d="M127.475 65.5623H100.059C100.038 65.5625 100.019 65.5544 100.004 65.5398C99.9891 65.5253 99.9807 65.5055 99.9805 65.4848C99.9803 65.4641 99.9883 65.4441 100.003 65.4293C100.017 65.4145 100.037 65.406 100.058 65.4058H127.475C127.495 65.406 127.515 65.4143 127.53 65.429C127.544 65.4436 127.552 65.4634 127.552 65.4841C127.552 65.5047 127.544 65.5245 127.53 65.5391C127.515 65.5538 127.495 65.5621 127.475 65.5623H127.475Z" fill="#CCCCCC"/>
<path d="M127.475 67.4412H100.059C100.038 67.4414 100.019 67.4333 100.004 67.4187C99.9891 67.4042 99.9807 67.3844 99.9805 67.3637C99.9803 67.343 99.9883 67.323 100.003 67.3082C100.017 67.2934 100.037 67.2849 100.058 67.2847H127.475C127.495 67.2849 127.515 67.2932 127.53 67.3079C127.544 67.3225 127.552 67.3423 127.552 67.363C127.552 67.3836 127.544 67.4034 127.53 67.418C127.515 67.4327 127.495 67.441 127.475 67.4412H127.475Z" fill="#CCCCCC"/>
<path d="M127.475 69.3202H100.059C100.038 69.3203 100.019 69.3122 100.004 69.2976C99.9891 69.2831 99.9807 69.2633 99.9805 69.2426C99.9803 69.2219 99.9883 69.2019 100.003 69.1871C100.017 69.1723 100.037 69.1638 100.058 69.1636H127.475C127.495 69.1638 127.515 69.1721 127.53 69.1868C127.544 69.2014 127.552 69.2212 127.552 69.2419C127.552 69.2625 127.544 69.2823 127.53 69.2969C127.515 69.3116 127.495 69.3199 127.475 69.3202H127.475Z" fill="#CCCCCC"/>
<path d="M97.5114 20.9629H85.8878C85.7775 20.9628 85.6687 20.9881 85.5697 21.0369L82.636 22.5048C82.5395 22.5458 82.4572 22.6143 82.3993 22.7018C82.3414 22.7892 82.3105 22.8918 82.3105 22.9966C82.3105 23.1015 82.3414 23.204 82.3993 23.2914C82.4572 23.3789 82.5395 23.4474 82.636 23.4884L85.5697 24.9563C85.6687 25.0051 85.7775 25.0304 85.8878 25.0303H97.5114C97.6716 25.0396 97.829 24.9854 97.9495 24.8795C98.07 24.7736 98.1439 24.6245 98.1552 24.4646V21.5287C98.1439 21.3687 98.0699 21.2196 97.9494 21.1137C97.8289 21.0079 97.6716 20.9537 97.5114 20.9629V20.9629Z" fill="#3F3D56"/>
<path d="M98.1558 21.5287V24.4646C98.1445 24.6245 98.0706 24.7736 97.9501 24.8795C97.8296 24.9854 97.6722 25.0396 97.512 25.0303H95.1963V20.9629H97.512C97.6722 20.9537 97.8296 21.0079 97.9501 21.1137C98.0706 21.2196 98.1445 21.3687 98.1558 21.5287V21.5287Z" fill="#1B2E4C"/>
<path d="M27.8252 78.4905C29.3219 79.0164 30.9289 79.1481 32.4913 78.873C34.0537 78.5979 35.5189 77.9253 36.7458 76.9199C39.8702 74.2987 40.8498 69.9804 41.6469 65.9818C42.4328 62.0395 43.2186 58.0971 44.0045 54.1548L39.0686 57.5518C35.5191 59.9947 31.8895 62.5159 29.4318 66.0543C26.9741 69.5928 25.9013 74.4231 27.876 78.2519" fill="#E6E6E6"/>
<path d="M28.2469 92.8097C27.7474 89.1725 27.2337 85.4886 27.5841 81.8125C27.8953 78.5477 28.8918 75.3588 30.9207 72.7442C31.9975 71.359 33.3079 70.1722 34.7928 69.2371C35.1801 68.9928 35.5365 69.6062 35.1509 69.8494C32.5816 71.4724 30.5942 73.8691 29.4755 76.6939C28.2399 79.8351 28.0415 83.2594 28.2544 86.5963C28.3832 88.6142 28.6561 90.619 28.9311 92.6211C28.9528 92.7117 28.9392 92.8071 28.8932 92.888C28.8472 92.969 28.7722 93.0295 28.6833 93.0573C28.5926 93.0817 28.4959 93.0694 28.4142 93.023C28.3326 92.9767 28.2724 92.9 28.247 92.8096L28.2469 92.8097Z" fill="#F2F2F2"/>
<path d="M33.0586 86.3736C33.7005 87.3487 34.5828 88.1422 35.6206 88.6775C36.6584 89.2129 37.8166 89.4721 38.9837 89.4302C41.9831 89.2879 44.4837 87.1955 46.7346 85.209L53.3925 79.3335L48.9861 79.1227C45.8172 78.9711 42.5667 78.8297 39.5485 79.8065C36.5303 80.7832 33.7467 83.1338 33.1948 86.2564" fill="#E6E6E6"/>
<path d="M26.8348 94.9007C29.2393 90.6481 32.0284 85.9218 37.0119 84.4112C38.3976 83.9926 39.8506 83.8427 41.2926 83.9694C41.7471 84.0086 41.6336 84.7088 41.1799 84.6697C38.7628 84.4691 36.3503 85.1071 34.3487 86.4762C32.4225 87.7866 30.9228 89.6085 29.6534 91.5405C28.8759 92.7239 28.1794 93.9575 27.4829 95.1895C27.2602 95.5832 26.6096 95.299 26.8348 94.9007L26.8348 94.9007Z" fill="#F2F2F2"/>
<path d="M22.9818 99.3766C23.0628 98.4383 23.3999 97.5402 23.9562 96.7801C24.5126 96.02 25.267 95.4271 26.1372 95.0659V92.6074H30.2627V95.1434C31.09 95.5223 31.8021 96.1138 32.3262 96.8574C32.8503 97.6011 33.1678 98.4703 33.2462 99.3766L34.2163 110.648H22.0117L22.9818 99.3766Z" fill="#F2F2F2"/>
<path d="M163.283 45.5598L162.056 45.0433L161.214 38.894H150.002L149.09 45.0182L147.992 45.5669C147.939 45.5932 147.897 45.6364 147.872 45.6896C147.847 45.7427 147.841 45.8028 147.855 45.8599C147.868 45.917 147.901 45.9679 147.947 46.0044C147.993 46.0408 148.05 46.0606 148.108 46.0606H163.182C163.242 46.0606 163.3 46.0398 163.347 46.0017C163.393 45.9636 163.425 45.9106 163.437 45.8516C163.449 45.7926 163.44 45.7313 163.412 45.6782C163.384 45.625 163.338 45.5832 163.283 45.5598V45.5598Z" fill="#E6E6E6"/>
<path d="M183.206 39.7122H128.133C127.844 39.7116 127.567 39.5964 127.363 39.392C127.159 39.1875 127.044 38.9105 127.044 38.6217V30.8594H184.295V38.6217C184.295 38.9105 184.18 39.1875 183.976 39.392C183.772 39.5964 183.495 39.7116 183.206 39.7122V39.7122Z" fill="#CCCCCC"/>
<path d="M184.352 34.5279H126.993V1.31466C126.994 0.966107 127.132 0.631945 127.379 0.385485C127.625 0.139024 127.96 0.000390009 128.309 0H183.036C183.385 0.000390003 183.719 0.139025 183.966 0.385485C184.213 0.631945 184.351 0.966106 184.352 1.31466L184.352 34.5279Z" fill="#3F3D56"/>
<path d="M180.926 32.1173H130.419C130.15 32.117 129.893 32.0102 129.703 31.8202C129.513 31.6301 129.406 31.3725 129.405 31.1038V3.42422C129.406 3.1555 129.512 2.89787 129.703 2.70785C129.893 2.51784 130.15 2.41095 130.419 2.41064H180.926C181.195 2.41095 181.453 2.51784 181.643 2.70785C181.833 2.89787 181.94 3.1555 181.94 3.42422V31.1038C181.94 31.3725 181.833 31.6301 181.643 31.8202C181.453 32.0102 181.195 32.117 180.926 32.1173V32.1173Z" fill="white"/>
<path d="M167.624 41.8841C167.95 41.5831 168.338 41.3572 168.761 41.2223C169.184 41.0874 169.631 41.0468 170.072 41.1034C170.512 41.16 170.934 41.3124 171.309 41.5499C171.684 41.7874 172.003 42.1041 172.242 42.4779L179.074 41.2639L180.824 45.2335L171.153 46.8125C170.498 47.1726 169.734 47.2801 169.005 47.1146C168.276 46.9492 167.633 46.5223 167.198 45.9148C166.763 45.3073 166.566 44.5615 166.645 43.8186C166.723 43.0757 167.072 42.3874 167.624 41.8841V41.8841Z" fill="#FFB6B6"/>
<path d="M173.948 46.9527L181.07 46.8639L181.972 46.8517L196.462 46.6693C196.462 46.6693 200.397 42.9171 203.824 39.054L203.343 35.582C202.875 32.1747 201.184 29.0535 198.585 26.7993C193.677 30.0768 190.832 36.5642 190.832 36.5642L181.847 38.7121L180.948 38.9269L175.366 40.2603L173.948 46.9527Z" fill="#1B2E4C"/>
<path d="M210.408 68.2925H197.113C197.113 68.8618 182.581 69.3239 182.581 69.3239C182.26 69.5652 181.968 69.842 181.71 70.1491C180.934 71.0739 180.51 72.2429 180.513 73.4497V74.2749C180.513 75.6425 181.057 76.954 182.025 77.9211C182.992 78.8881 184.304 79.4316 185.672 79.4321H210.408C211.776 79.4309 213.088 78.8872 214.055 77.9203C215.022 76.9534 215.566 75.6423 215.568 74.2749V73.4497C215.566 72.0825 215.021 70.7719 214.054 69.8051C213.087 68.8383 211.776 68.2944 210.408 68.2925V68.2925Z" fill="#E4E4E4"/>
<path d="M200.74 79.2275H195.374V110.186H200.74V79.2275Z" fill="#E4E4E4"/>
<path d="M180.101 109.997C180.101 110.577 188.232 110.222 198.263 110.222C208.294 110.222 216.425 110.577 216.425 109.997C216.425 109.418 208.294 104.822 198.263 104.822C188.232 104.822 180.101 109.418 180.101 109.997Z" fill="#E4E4E4"/>
<path d="M176.496 106.46L172.502 106.46L170.603 91.063L176.497 91.0633L176.496 106.46Z" fill="#FFB6B6"/>
<path d="M177.515 110.329L164.638 110.329V110.166C164.638 108.837 165.166 107.563 166.106 106.624C167.046 105.684 168.321 105.156 169.65 105.156H169.65L177.515 105.157L177.515 110.329Z" fill="#2F2E41"/>
<path d="M164.692 106.46L160.699 106.46L158.799 91.063L164.693 91.0633L164.692 106.46Z" fill="#FFB6B6"/>
<path d="M165.711 110.329L152.834 110.329V110.166C152.834 108.837 153.362 107.563 154.302 106.624C155.242 105.684 156.517 105.156 157.846 105.156H157.847L165.712 105.157L165.711 110.329Z" fill="#2F2E41"/>
<path d="M200.467 17.8191C204.302 17.8191 207.411 14.7117 207.411 10.8786C207.411 7.04538 204.302 3.93799 200.467 3.93799C196.632 3.93799 193.523 7.04538 193.523 10.8786C193.523 14.7117 196.632 17.8191 200.467 17.8191Z" fill="#FFB6B6"/>
<path d="M211.706 58.4324C211.706 58.4324 214.036 70.7465 205.171 72.3147C196.306 73.8828 183.509 74.9849 183.509 74.9849L177.762 101.783L170.042 101.094C170.042 101.094 171.069 68.8351 173.594 66.3113C176.119 63.7874 192.078 56.2305 192.078 56.2305L211.706 58.4324Z" fill="#2F2E41"/>
<path d="M194.392 53.2715L190.515 57.1591C190.515 57.1591 162.52 61.6661 161.44 68.1289C159.81 77.8861 157.884 99.1038 157.884 99.1038L166.301 98.4728L169.601 74.354L183.068 71.2922L198.39 62.9462L194.392 53.2715Z" fill="#2F2E41"/>
<path d="M207.149 6.73567C206.464 5.443 205.593 2.86672 204.209 2.38892C203.441 2.13428 202.647 1.96519 201.841 1.88473L199.49 2.78877L200.77 1.79382C200.521 1.77899 200.271 1.76685 200.023 1.75743L198.436 2.36739L199.248 1.73633C197.768 1.72115 196.242 1.87489 195.095 2.77496C194.118 3.54227 193.15 6.44899 192.994 7.68109C192.826 8.85977 192.885 10.0595 193.166 11.2163L193.568 11.5982C193.709 11.2761 193.814 10.9398 193.883 10.5952C194.027 9.95132 194.304 9.34447 194.696 8.81337C195.087 8.28226 195.585 7.83853 196.158 7.51046L196.18 7.49814C196.854 7.11902 197.672 7.1365 198.445 7.1643L202.115 7.29632C202.998 7.32809 203.949 7.38394 204.638 7.93761C205.075 8.34604 205.419 8.84421 205.646 9.39796C205.988 10.0881 206.657 12.6911 206.657 12.6911C206.657 12.6911 207.035 12.1998 207.216 12.5655C207.507 11.6113 207.684 10.6261 207.743 9.63044C207.801 8.63032 207.596 7.63245 207.149 6.73567V6.73567Z" fill="#2F2E41"/>
<path d="M231.436 13.9264C230.993 13.9556 230.562 14.0814 230.173 14.2952C229.784 14.5089 229.446 14.8053 229.184 15.1634C228.922 15.5216 228.742 15.9328 228.656 16.3681C228.57 16.8035 228.581 17.2523 228.687 17.683L223.104 21.8L224.779 25.8019L232.583 19.8772C233.295 19.6504 233.899 19.1704 234.281 18.5282C234.662 17.8859 234.795 17.126 234.654 16.3925C234.512 15.659 234.107 15.0028 233.514 14.5483C232.92 14.0938 232.181 13.8725 231.436 13.9264V13.9264Z" fill="#FFB6B6"/>
<path d="M230.538 22.3316L216.539 37.8708C216.539 37.8708 209.845 35.7288 204.668 33.4066L202.342 26.2665C201.802 24.61 201.571 22.8684 201.662 21.1286C208.839 19.2197 217.187 26.3224 217.187 26.3224L227.665 18.1187L230.538 22.3316Z" fill="#1B2E4C"/>
<path d="M197.874 59.5803C195.376 58.718 192.794 57.8264 190.008 57.4916L189.889 57.4772L189.922 57.3614C192.805 47.242 192.085 40.7686 190.672 31.0448C190.372 28.9474 190.758 26.8091 191.773 24.949C192.788 23.089 194.378 21.6069 196.305 20.7241L196.322 20.7164L204.278 20.2111L204.296 20.21L210.082 21.9108C210.914 22.1573 211.643 22.6698 212.156 23.3697C212.669 24.0696 212.939 24.9183 212.923 25.7859C212.86 28.9837 212.993 32.5541 213.134 36.3339C213.45 44.8138 213.776 53.5825 211.923 59.2719L211.914 59.3017L211.889 59.321C210.186 60.7075 208.052 61.4567 205.856 61.4394C203.259 61.4394 200.608 60.5244 197.874 59.5803Z" fill="#1B2E4C"/>
<path d="M255.63 111H0.369943C0.271828 111 0.177733 110.961 0.108355 110.891C0.0389778 110.822 0 110.728 0 110.63C0 110.532 0.0389778 110.438 0.108355 110.369C0.177733 110.299 0.271828 110.26 0.369943 110.26H255.63C255.728 110.26 255.822 110.299 255.892 110.369C255.961 110.438 256 110.532 256 110.63C256 110.728 255.961 110.822 255.892 110.891C255.822 110.961 255.728 111 255.63 111Z" fill="#CCCCCC"/>
</g>
<defs>
<clipPath id="clip0_341_330">
<rect width="256" height="111" fill="white"/>
</clipPath>
</defs>
</svg>
