<svg width="39" height="39" viewBox="0 0 39 39" fill="none" xmlns="http://www.w3.org/2000/svg">
<path d="M19.4687 0.036233C19.4687 0.0575895 19.3314 0.487771 19.1667 0.991174L18.8677 1.90645H17.8578C17.0737 1.90645 16.854 1.91561 16.8846 1.94306C16.9059 1.96442 17.2659 2.2268 17.6839 2.53189C18.1049 2.83394 18.4497 3.09632 18.4558 3.11157C18.4619 3.12683 18.3399 3.5265 18.1873 4.00244C17.8303 5.10078 17.8487 5.03976 17.8914 5.0123C17.9127 5.00315 18.2758 4.74077 18.6968 4.43262C19.1209 4.12448 19.4809 3.8743 19.4992 3.8743C19.5175 3.8743 19.8775 4.12448 20.3016 4.43262C20.7226 4.74077 21.0857 5.00315 21.107 5.0123C21.1498 5.03976 21.1681 5.10078 20.8111 4.00244C20.6586 3.5265 20.5365 3.12683 20.5426 3.11157C20.5487 3.09632 20.8965 2.83394 21.3145 2.52884C21.7355 2.2268 22.0925 1.96137 22.1139 1.94306C22.1413 1.91561 21.9033 1.90645 21.1406 1.90645H20.1308L19.8318 0.991174C19.667 0.487771 19.5297 0.0575895 19.5297 0.036233C19.5297 0.0179274 19.5175 -0.000378167 19.4992 -0.000378167C19.484 -0.000378167 19.4687 0.0179274 19.4687 0.036233Z" fill="black" fill-opacity="0.6"/>
<path d="M10.9467 2.61491C10.8826 2.81323 10.7453 3.24341 10.6386 3.56986L10.4433 4.16479L9.43649 4.18004L8.42969 4.1953L9.23208 4.77497C9.67447 5.09227 10.0375 5.3638 10.0406 5.37906C10.0406 5.39126 9.90329 5.82144 9.73549 6.33705C9.56768 6.85266 9.43649 7.27674 9.43955 7.27979C9.4426 7.28589 9.81176 7.02351 10.2541 6.70011C10.6996 6.37671 11.0779 6.12043 11.0932 6.13264C11.4745 6.41027 12.6979 7.29199 12.704 7.29199C12.7101 7.29199 12.6918 7.21877 12.6613 7.13029C12.5912 6.92283 12.2556 5.89161 12.164 5.59873L12.0908 5.36991L12.8993 4.78108L13.7078 4.1953L12.7071 4.18004L11.7033 4.16479L11.6515 4.01224C11.624 3.92682 11.4867 3.50884 11.3494 3.08171C11.2121 2.65458 11.0901 2.29457 11.0809 2.27931C11.0687 2.26711 11.0077 2.41966 10.9467 2.61491Z" fill="black" fill-opacity="0.6"/>
<path d="M27.913 2.27321C27.9038 2.29152 27.7848 2.65458 27.6475 3.08171C27.5103 3.50884 27.373 3.92681 27.3455 4.01224L27.2936 4.16479L26.2777 4.17394L25.2617 4.18004L25.9421 4.67429C26.3173 4.94583 26.6865 5.21126 26.7628 5.26922L26.9062 5.36991L26.714 5.95874C26.3784 6.97775 26.2777 7.29199 26.2899 7.29199C26.296 7.29199 26.6651 7.02656 27.1106 6.70011L27.9252 6.10823L28.7367 6.70011C29.1822 7.02351 29.5513 7.28589 29.5574 7.28284C29.5605 7.27674 29.4293 6.85266 29.2615 6.33705C29.0937 5.82144 28.9564 5.39126 28.9564 5.37906C28.9594 5.3638 29.3225 5.09227 29.7649 4.77497L30.5673 4.1953L29.5605 4.18004L28.5537 4.16479L28.3462 3.52409C28.2303 3.17018 28.0899 2.74 28.035 2.56305C27.977 2.38915 27.9221 2.25796 27.913 2.27321Z" fill="black" fill-opacity="0.6"/>
<path d="M4.62534 9.22906C4.47889 9.68365 4.33855 10.1169 4.31414 10.1962L4.27143 10.3427L3.26462 10.3488L2.25781 10.3579L3.06631 10.9467L3.87481 11.5325L3.83514 11.6637C3.81379 11.7339 3.6765 12.161 3.527 12.6095C3.38056 13.061 3.26767 13.4332 3.27072 13.4393C3.27682 13.4454 3.63988 13.1892 4.07617 12.8719C4.51245 12.5546 4.88466 12.2952 4.89992 12.2952C4.91822 12.2952 5.28739 12.5576 5.72367 12.8719C6.15995 13.1892 6.51996 13.4454 6.52607 13.4393C6.53522 13.4332 5.99215 11.7278 5.93113 11.5722C5.92503 11.5539 6.28504 11.2732 6.73048 10.9467L7.54508 10.3579L6.53827 10.3488L5.53146 10.3427L5.23552 9.43347C5.07687 8.93617 4.93348 8.49989 4.91822 8.46633C4.89992 8.42362 4.82365 8.62498 4.62534 9.22906Z" fill="black" fill-opacity="0.6"/>
<path d="M33.777 9.37244L33.4597 10.3426L32.4559 10.3487L31.4521 10.3579L32.2515 10.9345C32.6878 11.2518 33.0508 11.5203 33.0569 11.5295C33.063 11.5386 33.0112 11.7125 32.9471 11.9139C32.523 13.2105 32.4468 13.4546 32.4559 13.4546C32.462 13.4546 32.819 13.1983 33.2491 12.8871C33.6793 12.5759 34.0485 12.3135 34.0698 12.3044C34.0912 12.2952 34.4695 12.5515 34.9119 12.8688C35.3512 13.1892 35.7174 13.4454 35.7235 13.4393C35.7326 13.4332 35.6228 13.0946 35.1956 11.7796C35.1529 11.6576 35.1285 11.5447 35.1346 11.5325C35.1438 11.5203 35.5068 11.2488 35.9431 10.9345L36.7394 10.3579L35.7326 10.3487L34.7258 10.3426L34.4085 9.37244L34.0912 8.4053L33.777 9.37244Z" fill="black" fill-opacity="0.6"/>
<path d="M2.39193 17.5889C2.25464 18.0069 2.1143 18.4432 2.07768 18.5561L2.01056 18.7635L1.00681 18.7697L0 18.7788L0.811548 19.3707C1.36072 19.7704 1.61699 19.9748 1.60784 20.0053C1.54072 20.1731 1.00681 21.8511 1.01596 21.8602C1.01901 21.8663 1.38207 21.6101 1.81836 21.2958C2.25464 20.9785 2.62685 20.7192 2.64211 20.7161C2.66041 20.7161 3.02957 20.9755 3.46586 21.2928C3.90214 21.6131 4.26215 21.8663 4.26825 21.8602C4.27741 21.8541 3.74044 20.1731 3.67332 19.9961C3.66722 19.9748 4.02723 19.6941 4.47267 19.3707L5.28726 18.7788L4.28046 18.7697L3.2706 18.7635L2.95635 17.7934L2.63906 16.8262L2.39193 17.5889Z" fill="black" fill-opacity="0.6"/>
<path d="M36.0348 17.7932L35.7175 18.7634L34.7137 18.7695L33.71 18.7787L34.5185 19.3675L35.327 19.9563L35.272 20.1302C34.8419 21.4482 34.7229 21.8266 34.729 21.8449C34.7351 21.8601 35.0951 21.6099 35.5314 21.2927C35.9677 20.9754 36.3399 20.716 36.3551 20.716C36.3734 20.7191 36.7426 20.9784 37.1789 21.2957C37.6152 21.613 37.9752 21.8693 37.9813 21.8632C37.9843 21.8571 37.9691 21.793 37.9447 21.7198C37.5938 20.652 37.3772 19.9838 37.3772 19.9746C37.3772 19.9655 37.7433 19.694 38.1887 19.3706L39.0003 18.7787L37.9904 18.7695L36.9836 18.7634L36.6663 17.7932L36.349 16.8261L36.0348 17.7932Z" fill="black" fill-opacity="0.6"/>
<path d="M4.64986 26.0123C4.51257 26.4303 4.37223 26.8635 4.33562 26.9764L4.2685 27.1838L3.26169 27.19L2.25488 27.1991L3.06948 27.791C3.55763 28.1449 3.87493 28.3981 3.86577 28.4195C3.7956 28.6025 3.26474 30.2744 3.27389 30.2836C3.28305 30.2897 3.64611 30.0334 4.08544 29.7161C4.52478 29.3958 4.89089 29.1364 4.90004 29.1364C4.90919 29.1364 5.2631 29.3866 5.68718 29.6948C6.58721 30.3507 6.54754 30.3233 6.52619 30.247C6.50483 30.1768 5.94956 28.4652 5.93125 28.4164C5.92515 28.3951 6.28516 28.1144 6.73365 27.791L7.5513 27.1991L6.53839 27.19L5.52853 27.1838L5.23564 26.2747C5.07394 25.7774 4.9336 25.3411 4.91835 25.3106C4.90309 25.2679 4.82682 25.4662 4.64986 26.0123Z" fill="black" fill-opacity="0.6"/>
<path d="M33.8016 26.1464C33.6399 26.6407 33.4996 27.0769 33.4874 27.1135L33.4691 27.1837L32.4592 27.1898L31.4463 27.199L32.2578 27.7878L33.0694 28.3766L33.0297 28.5048C33.0084 28.5749 32.9046 28.8922 32.8009 29.2126C32.5172 30.0821 32.4592 30.2713 32.4714 30.2835C32.4775 30.2896 32.8253 30.0455 33.2433 29.7404C33.6643 29.4384 34.0274 29.176 34.0548 29.1577C34.0914 29.1363 34.2776 29.2584 34.903 29.7129C35.3454 30.0363 35.7115 30.2926 35.7176 30.2865C35.7237 30.2804 35.6962 30.1736 35.6535 30.0485C35.565 29.777 35.1654 28.5383 35.1379 28.4438C35.1196 28.3858 35.2081 28.3126 35.9312 27.7878L36.7427 27.199L35.7328 27.1898L34.726 27.1837L34.4087 26.2135L34.0914 25.2464L33.8016 26.1464Z" fill="black" fill-opacity="0.6"/>
<path d="M10.7542 32.3826L10.4492 33.3314L9.43014 33.3467L8.41113 33.3619L9.22573 33.9538C9.67422 34.2772 10.0403 34.5518 10.0403 34.564C10.0403 34.5732 9.90304 35.0003 9.73829 35.5128C9.57049 36.0254 9.4393 36.4495 9.4454 36.4525C9.4515 36.4586 9.80541 36.2115 10.2295 35.9034C10.6536 35.5952 11.0197 35.3328 11.038 35.3206C11.0624 35.3054 11.3675 35.5067 11.877 35.8759C12.3163 36.1962 12.6794 36.4525 12.6885 36.4464C12.6977 36.4373 12.1699 34.7776 12.0967 34.5884C12.0906 34.5671 12.4231 34.3077 12.9082 33.9569L13.732 33.3619L12.716 33.3528L11.7 33.3467L11.5261 32.8036C11.2454 31.9402 11.0868 31.452 11.0746 31.4429C11.0685 31.4368 10.9251 31.8578 10.7542 32.3826Z" fill="black" fill-opacity="0.6"/>
<path d="M27.9069 31.4552C27.8977 31.4796 27.7574 31.9159 27.5926 32.4223L27.2967 33.3468L26.2777 33.3529L25.2617 33.362L26.0824 33.9539L26.9031 34.5427L26.7536 35.0065C26.6712 35.2597 26.5309 35.6929 26.4394 35.9675C26.3479 36.2452 26.2746 36.474 26.2807 36.477C26.2838 36.4801 26.6499 36.2146 27.0953 35.8912C27.5408 35.5678 27.9191 35.3055 27.9374 35.3116C27.9557 35.3207 28.3218 35.5801 28.752 35.8912C29.1822 36.2024 29.5391 36.4587 29.5483 36.4587C29.5574 36.4587 29.5605 36.4404 29.5513 36.4191C29.2706 35.5739 28.9564 34.561 28.9686 34.5427C28.9778 34.5275 29.3439 34.2559 29.7862 33.9386L30.5856 33.362L29.5666 33.3468L28.5476 33.3315L28.2364 32.3705C28.0655 31.8427 27.916 31.4308 27.9069 31.4552Z" fill="black" fill-opacity="0.6"/>
<path d="M19.178 34.6586L18.8729 35.6044L17.8569 35.6105L16.8379 35.6196L17.6372 36.1963C18.0766 36.5136 18.4427 36.7881 18.4488 36.8095C18.4579 36.8308 18.3756 37.1207 18.2657 37.4532C18.1589 37.7858 18.0217 38.2038 17.9637 38.3807C17.9057 38.5577 17.863 38.7072 17.8691 38.7133C17.8752 38.7194 18.2383 38.46 18.6807 38.1397C19.123 37.8194 19.4891 37.557 19.4983 37.557C19.5075 37.557 19.8736 37.8194 20.316 38.1397C20.7583 38.46 21.1214 38.7194 21.1275 38.7133C21.1336 38.7072 21.0909 38.5577 21.0329 38.3807C20.975 38.2038 20.8377 37.7858 20.7309 37.4532C20.621 37.1207 20.5387 36.8308 20.5478 36.8095C20.5539 36.7881 20.92 36.5136 21.3563 36.1963L22.1526 35.6196L21.1397 35.6105L20.1237 35.6044L19.8187 34.6586C19.6539 34.1369 19.5075 33.7128 19.4983 33.7128C19.4891 33.7128 19.3427 34.1369 19.178 34.6586Z" fill="black" fill-opacity="0.6"/>
<path d="M12.233 24V13.8182H15.6733C16.4688 13.8182 17.1217 13.9541 17.6321 14.2259C18.1425 14.4943 18.5204 14.8639 18.7656 15.3345C19.0109 15.8052 19.1335 16.3404 19.1335 16.9403C19.1335 17.5402 19.0109 18.0722 18.7656 18.5362C18.5204 19.0002 18.1442 19.3648 17.6371 19.63C17.13 19.8918 16.482 20.0227 15.6932 20.0227H12.9091V18.9091H15.6534C16.197 18.9091 16.6345 18.8295 16.9659 18.6705C17.3007 18.5114 17.5426 18.286 17.6918 17.9943C17.8442 17.6993 17.9205 17.348 17.9205 16.9403C17.9205 16.5327 17.8442 16.1764 17.6918 15.8714C17.5393 15.5665 17.2957 15.3312 16.9609 15.1655C16.6262 14.9964 16.1837 14.9119 15.6335 14.9119H13.4659V24H12.233ZM17.0256 19.4261L19.5312 24H18.0994L15.6335 19.4261H17.0256ZM24.0492 24.1591C23.3598 24.1591 22.7549 23.995 22.2346 23.6669C21.7175 23.3388 21.3132 22.8797 21.0215 22.2898C20.7331 21.6998 20.589 21.0104 20.589 20.2216C20.589 19.4261 20.7331 18.7318 21.0215 18.1385C21.3132 17.5452 21.7175 17.0845 22.2346 16.7564C22.7549 16.4283 23.3598 16.2642 24.0492 16.2642C24.7386 16.2642 25.3418 16.4283 25.8588 16.7564C26.3792 17.0845 26.7836 17.5452 27.0719 18.1385C27.3636 18.7318 27.5094 19.4261 27.5094 20.2216C27.5094 21.0104 27.3636 21.6998 27.0719 22.2898C26.7836 22.8797 26.3792 23.3388 25.8588 23.6669C25.3418 23.995 24.7386 24.1591 24.0492 24.1591ZM24.0492 23.1051C24.5729 23.1051 25.0037 22.9709 25.3418 22.7024C25.6799 22.4339 25.9301 22.081 26.0925 21.6435C26.2549 21.206 26.3361 20.732 26.3361 20.2216C26.3361 19.7112 26.2549 19.2356 26.0925 18.7947C25.9301 18.3539 25.6799 17.9976 25.3418 17.7259C25.0037 17.4541 24.5729 17.3182 24.0492 17.3182C23.5255 17.3182 23.0946 17.4541 22.7566 17.7259C22.4185 17.9976 22.1683 18.3539 22.0059 18.7947C21.8435 19.2356 21.7623 19.7112 21.7623 20.2216C21.7623 20.732 21.8435 21.206 22.0059 21.6435C22.1683 22.081 22.4185 22.4339 22.7566 22.7024C23.0946 22.9709 23.5255 23.1051 24.0492 23.1051Z" fill="black"/>
</svg>
