<svg width="18" height="18" viewBox="0 0 18 18" fill="none" xmlns="http://www.w3.org/2000/svg">
<path d="M14.0402 5.22018H11.5202V5.85018H14.0402C14.3876 5.85018 14.6702 6.13278 14.6702 6.48018V16.5602C14.6702 16.9076 14.3876 17.1902 14.0402 17.1902H3.9602C3.6146 17.1902 3.3302 16.9076 3.3302 16.5602V6.48018C3.3302 6.13458 3.6128 5.85018 3.9602 5.85018H6.4802V5.22018H3.9602C3.2636 5.22018 2.7002 5.78358 2.7002 6.48018V16.5602C2.7002 17.2568 3.2636 17.8202 3.9602 17.8202H14.0402C14.7368 17.8202 15.3002 17.2568 15.3002 16.5602V6.48018C15.3002 5.78358 14.7368 5.22018 14.0402 5.22018ZM6.7052 3.24018L8.6852 1.25658V11.2052C8.6852 11.378 8.8274 11.5202 9.0002 11.5202C9.173 11.5202 9.3152 11.378 9.3152 11.2052V1.25658L11.2952 3.23658C11.3582 3.29958 11.4374 3.32658 11.5202 3.32658C11.603 3.32658 11.6822 3.29598 11.7452 3.23658C11.8676 3.11418 11.8676 2.91438 11.7452 2.79198L9.2252 0.271976C9.1028 0.149576 8.90299 0.149576 8.78059 0.271976L6.26059 2.79198C6.13819 2.91438 6.13819 3.11418 6.26059 3.23658C6.38119 3.36258 6.5792 3.36258 6.7052 3.24018Z" fill="black" fill-opacity="0.6"/>
</svg>
